<svg xmlns="http://www.w3.org/2000/svg" viewBox="0 0 420 340" role="img" aria-label="Campana de hotel dorada con follaje">
<defs><linearGradient id="gold" x1="0" y1="0" x2="1" y2="1"><stop stop-color="#f4e3b1"/><stop offset=".3" stop-color="#c59d55"/><stop offset=".62" stop-color="#f0d693"/><stop offset="1" stop-color="#9f783c"/></linearGradient><linearGradient id="leaf" x1="0" y1="0" x2="1" y2="1"><stop stop-color="#cdd8c6"/><stop offset="1" stop-color="#4e6859"/></linearGradient><filter id="s"><feDropShadow dx="0" dy="9" stdDeviation="7" flood-color="#2a342f" flood-opacity=".2"/></filter></defs>
<g fill="url(#leaf)" opacity=".9"><path d="M28 265C92 235 124 204 154 162" fill="none" stroke="#6d806f" stroke-width="5"/><ellipse cx="72" cy="240" rx="18" ry="42" transform="rotate(-58 72 240)"/><ellipse cx="105" cy="215" rx="17" ry="39" transform="rotate(-43 105 215)"/><ellipse cx="133" cy="185" rx="16" ry="36" transform="rotate(-27 133 185)"/><path d="M392 265C328 235 296 204 266 162" fill="none" stroke="#6d806f" stroke-width="5"/><ellipse cx="348" cy="240" rx="18" ry="42" transform="rotate(58 348 240)"/><ellipse cx="315" cy="215" rx="17" ry="39" transform="rotate(43 315 215)"/><ellipse cx="287" cy="185" rx="16" ry="36" transform="rotate(27 287 185)"/></g>
<g filter="url(#s)"><ellipse cx="210" cy="286" rx="125" ry="25" fill="#704e35"/><ellipse cx="210" cy="268" rx="111" ry="22" fill="#b88d4c"/><path d="M103 246C112 169 152 136 210 136C268 136 308 169 317 246Z" fill="url(#gold)" stroke="#8e6c38" stroke-width="4"/><ellipse cx="210" cy="244" rx="112" ry="21" fill="url(#gold)" stroke="#8e6c38" stroke-width="4"/><rect x="187" y="83" width="46" height="61" rx="8" fill="url(#gold)" stroke="#8e6c38" stroke-width="4"/><ellipse cx="210" cy="79" rx="36" ry="20" fill="url(#gold)" stroke="#8e6c38" stroke-width="4"/></g>
</svg>